<?xml version="1.0" standalone="no"?>
<!DOCTYPE svg PUBLIC "-//W3C//DTD SVG 20010904//EN"
 "http://www.w3.org/TR/2001/REC-SVG-20010904/DTD/svg10.dtd">
<svg version="1.0" xmlns="http://www.w3.org/2000/svg"
 width="700.000000pt" height="700.000000pt" viewBox="0 0 700.000000 700.000000"
 preserveAspectRatio="xMidYMid meet">
<metadata>
Created by potrace 1.14, written by Peter Selinger 2001-2017
</metadata>
<g transform="translate(0.000000,700.000000) scale(0.100000,-0.100000)"
fill="#000000" stroke="none">
<path d="M5995 4669 c-299 -25 -524 -121 -727 -309 -68 -62 -188 -207 -188
-225 0 -4 -9 -18 -20 -32 -19 -25 -20 -41 -20 -598 l0 -571 60 -92 c154 -233
396 -405 677 -479 125 -33 361 -41 488 -17 239 45 463 163 638 335 31 31 57
60 57 65 0 4 -21 27 -47 52 -40 37 -256 242 -405 385 -22 20 -42 37 -45 37 -2
0 -33 -29 -67 -63 -41 -42 -85 -75 -131 -98 -62 -30 -78 -34 -166 -36 -153 -4
-256 36 -359 137 -87 87 -130 188 -136 321 -10 250 155 460 395 501 144 25
283 -25 402 -144 38 -37 70 -68 73 -68 2 0 11 6 18 13 7 6 42 37 78 67 36 30
67 57 70 60 3 3 48 41 100 85 52 44 97 82 100 85 3 3 32 28 65 55 96 80 92 69
46 124 -99 118 -236 225 -377 295 -69 34 -175 73 -224 82 -14 3 -42 9 -62 15
-20 5 -72 12 -115 15 -43 3 -82 6 -88 8 -5 1 -46 -1 -90 -5z"/>
<path d="M0 4290 l0 -320 218 1 c119 0 249 0 288 0 l71 -1 1 -777 c0 -428 1
-784 1 -790 1 -10 82 -13 371 -13 l370 0 0 28 c1 15 1 370 1 790 l1 762 77 1
c42 0 175 1 296 2 l220 2 0 318 1 317 -958 0 -958 0 0 -320z"/>
<path d="M2104 4601 c-2 -2 -4 -503 -4 -1113 l0 -1108 350 0 350 0 -5 213 c-4
237 -16 818 -19 945 -2 85 7 111 23 70 5 -13 73 -219 151 -458 78 -239 167
-510 197 -602 l55 -168 263 0 263 0 26 83 c32 97 95 294 176 542 32 99 84 259
115 355 71 219 86 260 96 260 4 0 6 -98 4 -217 -2 -120 -7 -399 -10 -621 l-6
-402 363 2 363 3 0 1103 c1 701 -3 1106 -9 1109 -13 8 -985 10 -998 2 -7 -5
-246 -824 -339 -1163 -7 -27 -14 -35 -21 -28 -9 9 -108 296 -329 962 -40 118
-76 219 -80 224 -8 9 -966 16 -975 7z"/>
</g>
</svg>
