<?xml version="1.0" encoding="utf-8"?>
<!-- Generator: Adobe Illustrator 25.4.1, SVG Export Plug-In . SVG Version: 6.00 Build 0)  -->
<svg version="1.1"
	 id="svg20" xmlns:cc="http://creativecommons.org/ns#" xmlns:dc="http://purl.org/dc/elements/1.1/" xmlns:rdf="http://www.w3.org/1999/02/22-rdf-syntax-ns#" xmlns:svg="http://www.w3.org/2000/svg"
	 xmlns="http://www.w3.org/2000/svg" xmlns:xlink="http://www.w3.org/1999/xlink" x="0px" y="0px" viewBox="0 0 707.2 237"
	 style="enable-background:new 0 0 707.2 237;" xml:space="preserve">
<style type="text/css">
	.st0{fill:#FFFFFF;}
</style>
<g>
	<path class="st0" d="M193.7,71.1h-60v160.4h-75V71.1H0V6.8h193.7V71.1z M490.4,6.8v224.7H417l2-125.9h-2l-41.1,125.9h-53.5
		L281,105.3h-1.6l3.2,126.2h-70.8V6.8H311l40.8,121.3h1.6L388.3,6.8H490.4z M652.8,145.8l51.5,48.6c-22.5,25.8-54.8,42.7-91,42.7
		c-45,0-83.8-25.1-103.4-61.6V61.3C529.5,25.1,568.3,0,613.3,0c39.1,0,72.4,18.3,93.9,46.9l-53.8,45.3C644.6,78.5,629.9,69,613.3,69
		c-26.4,0-47.6,22.2-47.6,49.5c0,27.1,21.2,48.9,47.6,48.9C629.6,167.6,643.9,159.1,652.8,145.8z"/>
</g>
</svg>
